<svg id="Layer_1" data-name="Layer 1" xmlns="http://www.w3.org/2000/svg" viewBox="0 0 710.42 135.87"><defs><style>.cls-1{fill:#ed1c24;}.cls-2{fill:#fff;}.cls-3{fill:#231f20;}</style></defs><title>logo</title><ellipse class="cls-1" cx="67.94" cy="67.94" rx="67.94" ry="67.94"/><polygon class="cls-2" points="63.58 100.46 63.58 40.36 36.65 69.69 36.65 100.52 63.58 100.46"/><path class="cls-1" d="M108.52,131.53a1.14,1.14,0,0,1-.33-0.77h0V99.92l0.3-.76,26.93-29.32a1.06,1.06,0,0,1,1.2-.28h0a1.11,1.11,0,0,1,.73,1h0v60.1a1.17,1.17,0,0,1-.33.78h0a1.13,1.13,0,0,1-.79.33h0l-26.92,0a1.08,1.08,0,0,1-.79-0.32h0Zm27.71-.83v0h0ZM110.4,100.35v29.28l24.72,0V73.43L110.4,100.35h0Z" transform="translate(-72.65 -30.23)"/><polygon class="cls-2" points="103.21 100.52 103.21 60.82 63.58 17.66 63.58 40.36 63.58 100.46 103.21 100.52"/><path class="cls-1" d="M136.22,131.81a1.11,1.11,0,0,1-1.1-1.11h0V47.88a1.08,1.08,0,0,1,.7-1h0a1.08,1.08,0,0,1,1.21.28h0L176.68,90.3,177,91.06v39.7a1.07,1.07,0,0,1-.33.77h0a1,1,0,0,1-.77.32h0l-39.63,0h0Zm39.63-1.05v0h0ZM137.33,70.59v59l37.42,0,0-38.17L137.33,50.73V70.59h0Z" transform="translate(-72.65 -30.23)"/><path class="cls-3" d="M231.54,36.91h7.86l12.24,28.85c1.21,2.95,2.64,7.18,2.64,7.18h0.15s1.43-4.23,2.64-7.18L269.3,36.91h7.86l4.31,53.33h-7.4l-2.64-33.61c-0.23-3.25-.08-7.86-0.08-7.86H271.2s-1.59,4.91-2.87,7.86l-10.66,24H251l-10.58-24c-1.21-2.87-2.87-8-2.87-8h-0.15s0.08,4.76-.15,8l-2.57,33.61h-7.48Z" transform="translate(-72.65 -30.23)"/><path class="cls-3" d="M320.79,74.91h-20.1L295.4,90.24h-7.7l19.18-53.33h7.86l19.18,53.33h-7.77ZM310.73,44.24s-1.21,4.83-2.11,7.56l-6,16.92h16.17L312.93,51.8c-0.91-2.72-2-7.56-2-7.56h-0.15Z" transform="translate(-72.65 -30.23)"/><path class="cls-3" d="M350,43.41H331.68v-6.5h44v6.5H357.44V90.24H350V43.41Z" transform="translate(-72.65 -30.23)"/><path class="cls-3" d="M383.38,36.91h7.47V60.33h27.64V36.91H426V90.24h-7.49V66.82H390.85V90.24h-7.47V36.91Z" transform="translate(-72.65 -30.23)"/><path class="cls-3" d="M451.77,67.65L433.86,36.91h8.46l9.89,17.53c1.66,2.94,3.25,6.72,3.25,6.72h0.15s1.58-3.71,3.25-6.72l9.75-17.53h8.45L459.24,67.65V90.24h-7.47V67.65Z" transform="translate(-72.65 -30.23)"/><path class="cls-3" d="M485.11,78.46s5.66,5.74,13.6,5.74c5,0,9.21-2.79,9.21-7.85,0-11.56-25.84-9.07-25.84-25.46,0-8.31,7.17-14.87,17.23-14.87,9.89,0,15.1,5.36,15.1,5.36L511,47.56A18.8,18.8,0,0,0,499.31,43c-5.67,0-9.67,3.55-9.67,7.78,0,11,25.84,8.08,25.84,25.38,0,8.24-6.35,15-16.92,15a25,25,0,0,1-17.68-7Z" transform="translate(-72.65 -30.23)"/><path class="cls-1" d="M260.62,106.59L271,145.71c0.76,3,1.14,5.67,1.14,5.67h0.15a36.77,36.77,0,0,1,1-5.67l9.82-39.12h7.7l-14,53.32h-8.69L259,125.32c-0.9-3.4-1.58-7.56-1.58-7.56h-0.15s-0.68,4.16-1.59,7.56l-9.21,34.59h-8.69l-13.59-53.32h7.7l9.44,39.12a51.27,51.27,0,0,1,1,5.67h0.15s0.38-2.72,1.13-5.67L254,106.59h6.65Z" transform="translate(-72.65 -30.23)"/><path class="cls-1" d="M324,105.69a26.88,26.88,0,0,1,27.35,27.19c0,15.72-11.94,28-27.35,28s-27.42-12.24-27.42-28C296.61,117.54,308.62,105.69,324,105.69ZM324,154c10.88,0,19.64-9.07,19.64-21.08,0-11.63-8.76-20.39-19.64-20.39s-19.71,8.75-19.71,20.39C304.32,144.89,313.16,154,324,154Z" transform="translate(-72.65 -30.23)"/><path class="cls-1" d="M362.29,106.59h7.4l23.72,34.67c2,2.88,4.46,7.7,4.46,7.7H398s-0.53-4.76-.53-7.7V106.59H405v53.32h-7.33l-23.79-34.59c-2-2.95-4.46-7.78-4.46-7.78h-0.15s0.53,4.76.53,7.78v34.59h-7.48V106.59Z" transform="translate(-72.65 -30.23)"/><path class="cls-1" d="M419.5,106.59H427v53.32H419.5V106.59Z" transform="translate(-72.65 -30.23)"/><path class="cls-1" d="M441.5,106.59h7.39l23.72,34.67c2,2.88,4.45,7.7,4.45,7.7h0.15s-0.53-4.76-.53-7.7V106.59h7.48v53.32h-7.33l-23.79-34.59c-2-2.95-4.46-7.78-4.46-7.78h-0.15s0.53,4.76.53,7.78v34.59H441.5V106.59Z" transform="translate(-72.65 -30.23)"/><path class="cls-1" d="M522.34,105.69c12.77,0,19.42,6.42,19.42,6.42L538,117.7a24.55,24.55,0,0,0-15-5.21c-12.54,0-20.1,9.13-20.1,20.54,0,12.39,8.46,20.92,19.64,20.92,9.22,0,15.12-6.64,15.12-6.64V139.6h-8.7v-6.5H544.4v26.81h-6.57V156.6c0-1.14.08-2.27,0.08-2.27h-0.15a23,23,0,0,1-16.39,6.5c-14.36,0-26.21-11.33-26.21-27.64C495.15,117.77,506.79,105.69,522.34,105.69Z" transform="translate(-72.65 -30.23)"/><path class="cls-1" d="M556.14,106.59H574.8c9,0,15.49,5,15.49,13.6a12.47,12.47,0,0,1-6.65,11.48v0.15c5.6,1.65,8.77,6.95,8.77,12.92,0,10-7.78,15.18-17.16,15.18H556.14V106.59ZM574.8,129c4.83,0,7.86-3.4,7.86-8.08s-2.88-7.86-8-7.86h-11V129H574.8Zm0.84,24.4c5.74,0,9.13-3.63,9.13-9.07s-3.63-9.14-9.21-9.14H563.63v18.21h12Z" transform="translate(-72.65 -30.23)"/><path class="cls-1" d="M627.85,105.69a26.88,26.88,0,0,1,27.35,27.19c0,15.72-11.93,28-27.35,28s-27.41-12.24-27.41-28C600.44,117.54,612.44,105.69,627.85,105.69Zm0,48.27c10.88,0,19.65-9.07,19.65-21.08,0-11.63-8.76-20.39-19.65-20.39s-19.71,8.75-19.71,20.39C608.14,144.89,617,154,627.85,154Z" transform="translate(-72.65 -30.23)"/><path class="cls-1" d="M665.35,106.59h7.48V141c0,8.16,5.28,12.92,13.44,12.92s13.6-4.76,13.6-13.06v-34.3h7.47V141c0,11.86-8.53,19.79-21,19.79s-21-7.93-21-19.79V106.59Z" transform="translate(-72.65 -30.23)"/><path class="cls-1" d="M752.85,106.59l10.42,39.12c0.76,3,1.14,5.67,1.14,5.67h0.15a37.44,37.44,0,0,1,1-5.67l9.82-39.12h7.71l-14,53.32h-8.68l-9.22-34.59c-0.91-3.4-1.59-7.56-1.59-7.56h-0.15s-0.68,4.16-1.59,7.56l-9.21,34.59H730l-13.6-53.32h7.7l9.45,39.12a52.6,52.6,0,0,1,1,5.67h0.15a56.78,56.78,0,0,1,1.13-5.67l10.43-39.12h6.64Z" transform="translate(-72.65 -30.23)"/></svg>